<mxfile host="app.diagrams.net" agent="Mozilla/5.0 (Windows NT 10.0; Win64; x64) AppleWebKit/537.36 (KHTML, like Gecko) Chrome/128.0.0.0 Safari/537.36 OPR/114.0.0.0" version="25.0.1">
  <diagram name="PÃ¡gina-1" id="3RLwq454BOm9iOecrFIn">
    <mxGraphModel dx="1393" dy="763" grid="1" gridSize="10" guides="1" tooltips="1" connect="1" arrows="1" fold="1" page="1" pageScale="1" pageWidth="827" pageHeight="1169" math="0" shadow="0">
      <root>
        <mxCell id="0" />
        <mxCell id="1" parent="0" />
        <mxCell id="EnRRbB4UTFpFccT2cyPy-1" value="INICIO" style="strokeWidth=2;html=1;shape=mxgraph.flowchart.start_1;whiteSpace=wrap;" vertex="1" parent="1">
          <mxGeometry x="364" y="60" width="100" height="60" as="geometry" />
        </mxCell>
        <mxCell id="EnRRbB4UTFpFccT2cyPy-2" value="FIM" style="strokeWidth=2;html=1;shape=mxgraph.flowchart.start_1;whiteSpace=wrap;" vertex="1" parent="1">
          <mxGeometry x="364" y="720" width="100" height="60" as="geometry" />
        </mxCell>
        <mxCell id="EnRRbB4UTFpFccT2cyPy-3" value="NOME" style="html=1;strokeWidth=2;shape=manualInput;whiteSpace=wrap;rounded=1;size=26;arcSize=11;" vertex="1" parent="1">
          <mxGeometry x="360" y="150" width="100" height="60" as="geometry" />
        </mxCell>
        <mxCell id="EnRRbB4UTFpFccT2cyPy-4" value="ANONASCIMENTO" style="html=1;strokeWidth=2;shape=manualInput;whiteSpace=wrap;rounded=1;size=26;arcSize=11;" vertex="1" parent="1">
          <mxGeometry x="354" y="260" width="120" height="80" as="geometry" />
        </mxCell>
        <mxCell id="EnRRbB4UTFpFccT2cyPy-5" value="TIPOSANGUINEO" style="html=1;strokeWidth=2;shape=manualInput;whiteSpace=wrap;rounded=1;size=26;arcSize=11;" vertex="1" parent="1">
          <mxGeometry x="349" y="370" width="130" height="70" as="geometry" />
        </mxCell>
        <mxCell id="EnRRbB4UTFpFccT2cyPy-6" value="RENDAMENSAL" style="html=1;strokeWidth=2;shape=manualInput;whiteSpace=wrap;rounded=1;size=26;arcSize=11;" vertex="1" parent="1">
          <mxGeometry x="354" y="470" width="120" height="70" as="geometry" />
        </mxCell>
        <mxCell id="EnRRbB4UTFpFccT2cyPy-7" value="NOME&amp;nbsp;&lt;div&gt;ANONASCIMENTO TIPOSAGUINEO RENDAMENSAL&lt;/div&gt;" style="strokeWidth=2;html=1;shape=mxgraph.flowchart.display;whiteSpace=wrap;" vertex="1" parent="1">
          <mxGeometry x="336" y="580" width="156" height="110" as="geometry" />
        </mxCell>
        <mxCell id="EnRRbB4UTFpFccT2cyPy-8" style="edgeStyle=orthogonalEdgeStyle;rounded=0;orthogonalLoop=1;jettySize=auto;html=1;entryX=0.54;entryY=0.133;entryDx=0;entryDy=0;entryPerimeter=0;" edge="1" parent="1" source="EnRRbB4UTFpFccT2cyPy-1" target="EnRRbB4UTFpFccT2cyPy-3">
          <mxGeometry relative="1" as="geometry" />
        </mxCell>
        <mxCell id="EnRRbB4UTFpFccT2cyPy-9" style="edgeStyle=orthogonalEdgeStyle;rounded=0;orthogonalLoop=1;jettySize=auto;html=1;entryX=0.467;entryY=0.125;entryDx=0;entryDy=0;entryPerimeter=0;" edge="1" parent="1" source="EnRRbB4UTFpFccT2cyPy-3" target="EnRRbB4UTFpFccT2cyPy-4">
          <mxGeometry relative="1" as="geometry" />
        </mxCell>
        <mxCell id="EnRRbB4UTFpFccT2cyPy-10" style="edgeStyle=orthogonalEdgeStyle;rounded=0;orthogonalLoop=1;jettySize=auto;html=1;entryX=0.5;entryY=0.2;entryDx=0;entryDy=0;entryPerimeter=0;" edge="1" parent="1" source="EnRRbB4UTFpFccT2cyPy-4" target="EnRRbB4UTFpFccT2cyPy-5">
          <mxGeometry relative="1" as="geometry" />
        </mxCell>
        <mxCell id="EnRRbB4UTFpFccT2cyPy-11" style="edgeStyle=orthogonalEdgeStyle;rounded=0;orthogonalLoop=1;jettySize=auto;html=1;entryX=0.5;entryY=0.143;entryDx=0;entryDy=0;entryPerimeter=0;" edge="1" parent="1" source="EnRRbB4UTFpFccT2cyPy-5" target="EnRRbB4UTFpFccT2cyPy-6">
          <mxGeometry relative="1" as="geometry" />
        </mxCell>
        <mxCell id="EnRRbB4UTFpFccT2cyPy-12" style="edgeStyle=orthogonalEdgeStyle;rounded=0;orthogonalLoop=1;jettySize=auto;html=1;entryX=0.5;entryY=0;entryDx=0;entryDy=0;entryPerimeter=0;" edge="1" parent="1" source="EnRRbB4UTFpFccT2cyPy-6" target="EnRRbB4UTFpFccT2cyPy-7">
          <mxGeometry relative="1" as="geometry" />
        </mxCell>
        <mxCell id="EnRRbB4UTFpFccT2cyPy-13" style="edgeStyle=orthogonalEdgeStyle;rounded=0;orthogonalLoop=1;jettySize=auto;html=1;entryX=0.5;entryY=0;entryDx=0;entryDy=0;entryPerimeter=0;" edge="1" parent="1" source="EnRRbB4UTFpFccT2cyPy-7" target="EnRRbB4UTFpFccT2cyPy-2">
          <mxGeometry relative="1" as="geometry" />
        </mxCell>
      </root>
    </mxGraphModel>
  </diagram>
</mxfile>
